<?xml version="1.0" standalone="no"?>
<!DOCTYPE svg PUBLIC "-//W3C//DTD SVG 20010904//EN"
 "http://www.w3.org/TR/2001/REC-SVG-20010904/DTD/svg10.dtd">
<svg version="1.0" xmlns="http://www.w3.org/2000/svg"
 width="514.000000pt" height="514.000000pt" viewBox="0 0 514.000000 514.000000"
 preserveAspectRatio="xMidYMid meet">
<metadata>
Created by potrace 1.14, written by Peter Selinger 2001-2017
</metadata>
<g transform="translate(0.000000,514.000000) scale(0.100000,-0.100000)"
fill="#000000" stroke="none">
<path d="M2435 5129 c-371 -24 -709 -138 -1021 -345 -455 -302 -776 -779 -884
-1313 -63 -318 -50 -688 36 -993 35 -127 116 -329 154 -388 25 -39 87 -148 97
-172 8 -18 32 -36 80 -58 37 -17 83 -39 102 -48 42 -21 179 -185 216 -257 41
-82 93 -129 197 -179 163 -79 200 -129 212 -296 18 -227 17 -220 45 -252 36
-41 90 -42 131 -3 37 35 44 68 55 240 12 196 15 219 43 274 35 70 76 96 153
96 44 0 62 -5 86 -25 81 -65 114 -193 113 -440 -1 -151 -3 -192 -14 -295 -4
-27 -9 -75 -12 -105 -3 -30 -10 -82 -14 -115 -5 -33 -7 -107 -6 -165 3 -90 7
-115 32 -175 24 -57 36 -73 69 -92 84 -48 163 -10 220 103 24 50 29 72 29 139
1 77 -12 243 -19 255 -2 3 -6 29 -9 57 -3 28 -10 88 -17 134 -31 216 16 446
109 533 45 42 152 76 227 72 97 -6 136 -28 216 -120 135 -156 173 -186 237
-186 44 0 76 -15 95 -43 15 -23 23 -72 42 -252 4 -33 14 -71 22 -86 32 -54
109 -79 167 -55 72 30 87 101 91 436 3 280 7 324 35 387 21 47 37 57 122 73
95 19 128 48 260 240 59 85 82 110 122 131 58 32 78 62 186 278 111 223 184
462 207 681 4 41 8 167 7 280 -1 178 -4 223 -27 340 -48 245 -142 507 -229
636 -15 23 -28 44 -28 47 0 3 -31 52 -69 109 -124 185 -252 325 -440 476 -201
162 -496 308 -771 381 -191 50 -441 73 -655 60z"/>
</g>
</svg>
